<?xml version="1.0" encoding="utf-8"?>
<!DOCTYPE svg PUBLIC "-//W3C//DTD SVG 20010904//EN" "http://www.w3.org/TR/2001/REC-SVG-20010904/DTD/svg10.dtd">
<svg version="1.0" xmlns="http://www.w3.org/2000/svg" width="514pt" height="514pt" viewBox="0 0 514 514" style="" preserveAspectRatio="xMidYMid meet">
<g fill="#000000FF" stroke="#000000FF">
<path d="M 91.001 198.750 C 91.002 345.358 91.298 359.578 94.627 372.500 C 98.627 388.028 109.846 402.845 125.370 413.100 C 130.391 416.417 162.059 432.939 195.743 449.816 L 256.986 480.500 318.243 449.824 C 351.934 432.952 383.577 416.450 388.560 413.154 C 393.544 409.857 400.313 404.283 403.602 400.766 C 410.334 393.570 417.043 381.546 419.373 372.500 C 422.702 359.578 422.998 345.358 422.999 198.750 L 423.000 53.000 257.000 53.000 L 91.000 53.000 91.001 198.750 M 262.652 96.250 C 280.132 114.817 285.439 133.908 281.626 164.500 C 280.734 171.650 278.875 186.195 277.494 196.823 C 276.113 207.450 274.527 223.745 273.969 233.034 C 272.263 261.452 274.427 275.475 285.282 306.336 L 290.500 321.172 297.000 320.538 C 309.109 319.357 318.180 313.311 323.736 302.717 C 326.094 298.222 326.472 296.324 326.472 289.000 C 326.472 281.651 326.097 279.785 323.702 275.216 C 320.030 268.212 314.155 262.670 307.461 259.896 L 302.000 257.632 302.000 249.867 C 302.000 233.551 307.228 204.139 313.160 187.079 C 320.107 167.102 331.077 149.184 342.082 139.842 C 347.940 134.869 357.023 129.000 358.861 129.000 C 359.707 129.000 360.000 158.746 360.000 244.500 L 360.000 360.000 327.500 360.000 L 295.000 360.000 295.000 363.106 C 295.000 371.391 288.655 387.000 281.784 395.620 C 276.206 402.619 257.874 422.500 257.000 422.500 C 256.126 422.500 237.794 402.619 232.216 395.620 C 225.274 386.912 219.000 371.563 219.000 363.290 L 219.000 360.000 186.500 360.000 L 154.000 360.000 154.000 244.500 C 154.000 150.539 154.242 129.000 155.297 129.000 C 157.067 129.000 169.719 137.379 173.882 141.308 C 183.764 150.634 194.513 168.886 200.840 187.079 C 206.772 204.139 212.000 233.551 212.000 249.867 L 212.000 257.632 206.472 259.923 C 199.897 262.649 193.178 269.046 189.912 275.691 C 187.995 279.594 187.547 282.102 187.539 289.000 C 187.530 296.336 187.903 298.214 190.264 302.717 C 195.818 313.306 204.879 319.349 217.000 320.547 L 223.500 321.189 229.261 304.845 C 232.429 295.855 235.929 284.900 237.038 280.500 C 241.647 262.213 241.465 234.028 236.494 196.366 C 231.127 155.699 230.744 151.645 231.362 142.000 C 232.310 127.181 235.563 117.402 243.337 106.000 C 246.700 101.067 255.870 91.000 257.000 91.000 C 257.390 91.000 259.934 93.363 262.652 96.250 "/></g>
</svg>
