<?xml version="1.0" standalone="no"?>
<!DOCTYPE svg PUBLIC "-//W3C//DTD SVG 20010904//EN"
 "http://www.w3.org/TR/2001/REC-SVG-20010904/DTD/svg10.dtd">
<svg version="1.0" xmlns="http://www.w3.org/2000/svg"
 width="512.000000pt" height="512.000000pt" viewBox="0 0 512.000000 512.000000"
 preserveAspectRatio="xMidYMid meet">

<g transform="translate(0.000000,512.000000) scale(0.100000,-0.100000)"
fill="#000000" stroke="none">
<path d="M903 3058 c3 -1422 4 -1559 20 -1623 33 -135 126 -292 218 -367 95
-78 247 -161 822 -449 l597 -299 598 299 c574 288 726 371 821 449 92 75 185
232 218 367 16 64 17 201 20 1623 l4 1552 -1661 0 -1661 0 4 -1552z m1732
1085 c36 -43 83 -112 105 -154 85 -163 92 -296 36 -714 -87 -654 -79 -809 61
-1199 l57 -158 68 4 c118 9 212 72 270 180 19 36 23 58 23 138 0 87 -3 100
-30 149 -37 67 -104 126 -168 149 l-50 17 7 110 c22 363 115 685 264 908 54
81 179 201 251 240 l51 28 0 -1150 0 -1151 -319 0 -318 0 -7 -58 c-16 -141
-80 -257 -233 -422 -48 -53 -100 -110 -115 -128 l-28 -34 -27 34 c-16 18 -67
75 -116 127 -151 163 -217 282 -233 424 l-7 57 -318 0 -319 0 0 1151 0 1150
51 -28 c122 -67 261 -230 340 -398 99 -211 179 -575 179 -814 0 -46 0 -46 -48
-64 -64 -22 -136 -87 -170 -151 -24 -45 -27 -62 -27 -146 0 -80 4 -102 23
-138 58 -108 152 -171 271 -180 l68 -4 56 155 c140 386 148 547 61 1202 -55
410 -49 547 30 703 44 88 164 242 187 242 5 0 37 -35 74 -77z"/>
</g>
</svg>
